<?xml version="1.0" encoding="utf-8"?>
<!-- Generator: Adobe Illustrator 26.1.0, SVG Export Plug-In . SVG Version: 6.00 Build 0)  -->
<svg version="1.1" id="Capa_1" xmlns="http://www.w3.org/2000/svg" xmlns:xlink="http://www.w3.org/1999/xlink" x="0px" y="0px"
	 viewBox="0 0 512 512" style="enable-background:new 0 0 512 512;" xml:space="preserve">
<path d="M112,364c0,6.6,5.4,12,12,12h300c13.3,0,24,10.7,24,24c0,13.3-10.7,24-24,24H124c-33.1,0-60-26.9-60-60V112
	c0-13.3,10.7-24,24-24s24,10.7,24,24V364z M321,272.9c-9.4,9.4-24.5,9.4-33.9,0l-43-43l-67,67c-9.4,9.4-24.5,9.4-33.9,0
	c-9.4-9.4-9.4-24.5,0-33.9l84-84c9.4-9.4,24.5-9.4,33.9,0l43,43l79-79c9.4-9.4,24.5-9.4,33.9,0c9.4,9.4,9.4,24.5,0,33.9L321,272.9z"
	/>
</svg>
