<?xml version="1.0" encoding="utf-8"?>
<!-- Generator: Adobe Illustrator 26.1.0, SVG Export Plug-In . SVG Version: 6.00 Build 0)  -->
<svg version="1.1" id="Capa_1" xmlns="http://www.w3.org/2000/svg" xmlns:xlink="http://www.w3.org/1999/xlink" x="0px" y="0px"
	 viewBox="0 0 512 512" style="enable-background:new 0 0 512 512;" xml:space="preserve">
<path d="M382,88h-47.1c-11.6-32.5-42.4-56-78.9-56s-67.3,23.5-78.8,56H130c-23.2,0-42,18.8-42,42v308c0,23.2,18.8,42,42,42h252
	c23.2,0,42-18.8,42-42V130C424,106.8,405.2,88,382,88z M172,375c-11.6,0-21-9.4-21-21s9.4-21,21-21s21,9.4,21,21S183.6,375,172,375z
	 M172,291c-11.6,0-21-9.4-21-21s9.4-21,21-21s21,9.4,21,21C193,281.5,183.6,291,172,291z M256,88c15.5,0,28,12.5,28,28
	s-12.5,28-28,28s-28-12.5-28-28C228,100.5,240.5,88,256,88z M354,368H242c-7.7,0-14-6.3-14-14c0-7.7,6.3-14,14-14h112
	c7.7,0,14,6.3,14,14C368,361.7,361.7,368,354,368z M354,284H242c-7.7,0-14-6.3-14-14c0-7.7,6.3-14,14-14h112c7.7,0,14,6.3,14,14
	C368,277.7,361.7,284,354,284z"/>
</svg>
