<?xml version="1.0" encoding="utf-8"?>
<!-- Generator: Adobe Illustrator 26.1.0, SVG Export Plug-In . SVG Version: 6.00 Build 0)  -->
<svg version="1.1" id="Capa_1" xmlns="http://www.w3.org/2000/svg" xmlns:xlink="http://www.w3.org/1999/xlink" x="0px" y="0px"
	 viewBox="0 0 512 512" style="enable-background:new 0 0 512 512;" xml:space="preserve">
<path d="M398.8,121.6h64.4c9.3,0,16.8,7.5,16.8,16.8c0,9.3-7.5,16.8-16.8,16.8h-72.8c-5.3,0-10.3-2.5-13.4-6.7L360.1,126l-32.9,69.9
	c-2.6,5.5-7.9,9.2-13.9,9.6c-6.1,0.5-11.9-2.4-15.3-7.4l-28.6-42.9h-86.2c-9.3,0-16.8-7.5-16.8-16.8c0-9.3,7.5-16.8,16.8-16.8h95.2
	c5.6,0,10.9,2.8,13.4,7.5l17.7,25.6l32.1-68.3c2.5-5.3,7.6-9,13.5-9.6c5.8-0.6,11.6,1.9,15.1,6.6L398.8,121.6z M256,188.8h8.9
	l14.5,21.8c7.8,11.8,21.4,18.3,35.5,17.3c14.1-1,26.6-9.6,32.6-22.4l7.8-16.7h57.5c37.1,0,67.2,29.5,67.2,67.2v156.8
	c0,12.4-10,22.4-22.4,22.4s-22.4-10-22.4-22.4v-22.4H76.8v22.4c0,12.4-10,22.4-22.4,22.4S32,425.2,32,412.8V144
	c0-12.4,10-22.4,22.4-22.4s22.4,10,22.4,22.4v179.2h156.8v-112C233.6,198.8,243.6,188.8,256,188.8z M99.2,244.8
	c0-30.9,25.1-56,56-56s56,25.1,56,56s-25.1,56-56,56S99.2,275.7,99.2,244.8z"/>
</svg>
