<?xml version="1.0" encoding="utf-8"?>
<!-- Generator: Adobe Illustrator 26.1.0, SVG Export Plug-In . SVG Version: 6.00 Build 0)  -->
<svg version="1.1" id="Capa_1" xmlns="http://www.w3.org/2000/svg" xmlns:xlink="http://www.w3.org/1999/xlink" x="0px" y="0px"
	 viewBox="0 0 512 512" style="enable-background:new 0 0 512 512;" xml:space="preserve">
<path d="M401.1,224.8L196.8,428.9l-29.7-29.7l3.1-3.1h-40.4c-7.7,0-14-6.3-14-14v-40.4l-3.1,3.1c-4.1,4.2-7.2,9.3-8.8,14.9
	l-20.1,68.5l68.5-20.1c4.8-1.7,10.7-4.7,14.9-8.8l29.7,29.7c-9.1,9.1-20.4,15.9-32.8,19.4l-105.4,31c-7.4,2.2-15.4,0.2-20.8-6
	c-5.4-4.6-7.5-12.6-5.3-20.1l31-105.4c3.6-12.4,10.3-23.7,19.4-32.8l204.2-204.2L401.1,224.8z M463.3,83.3
	c21.9,21.9,21.9,57.4,0,79.3L420.9,205L307,91.1l42.4-42.4c21.9-21.9,57.5-21.9,79.4,0L463.3,83.3z"/>
</svg>
